<svg xmlns="http://www.w3.org/2000/svg" xmlns:xlink="http://www.w3.org/1999/xlink" width="72" height="78" viewBox="0 0 72 78" fill="none"><g opacity="1" transform="translate(0 0)  rotate(0 36 39)"><path id="形状" fill-rule="evenodd" style="fill:#2D25FF" transform="translate(0.05440628659327586 0)  rotate(0 35.565849531983076 38.79727226132861)" opacity="1" d="M2.55 69.33C4.38 72.34 7.08 74.72 10.29 76.14C12.77 77.24 15.5 77.73 18.19 77.56C21.59 77.39 25 76.19 28.16 74.2C30.69 72.62 32.99 70.63 35.57 67.93C35.19 67.54 34.81 67.13 34.43 66.71L36.7 66.71C36.32 67.13 35.94 67.54 35.57 67.93C37.9 70.38 40.02 72.24 42.32 73.77C45.44 75.86 48.8 77.18 52.18 77.5C56.15 77.91 60.14 76.93 63.46 74.7C66.38 72.72 68.63 69.9 69.92 66.61C70.75 64.48 71.17 62.21 71.13 59.93C71.07 57.61 70.61 55.31 69.74 53.14C69.22 51.81 68.66 50.49 68.05 49.19L67.76 48.54C62.25 36.32 56.47 24.23 50.4 12.28C49.76 10.97 49.1 9.7 48.41 8.44C47.35 6.52 46.28 5.01 44.98 3.79C42.64 1.54 39.59 0.21 36.36 0L34.96 0C31.6 0.16 28.42 1.56 26.03 3.92C24.79 5.11 23.76 6.56 22.73 8.44C22.14 9.5 21.67 10.42 20.76 12.21L20.24 13.25C16.3 21.04 12.48 28.89 8.77 36.79C6.55 41.51 4.37 46.26 2.26 51.03C1.12 53.64 0.47 55.59 0.18 57.66C-0.41 61.71 0.43 65.84 2.55 69.33Z M34.43 66.71C34.81 67.13 35.19 67.54 35.57 67.93C35.94 67.54 36.32 67.13 36.7 66.71L34.43 66.71Z M47.1636 23.1751L46.7736 22.3851C44.5736 17.9551 43.3736 15.5851 41.9936 12.9451C41.0336 11.1251 40.3236 10.0751 39.3836 9.28508C38.3336 8.38508 36.9736 7.88508 35.5836 7.89508C34.2536 7.87508 32.9536 8.31508 31.9136 9.15508C31.0436 9.82508 30.3136 10.7951 29.4936 12.2951C28.8736 13.4251 28.3936 14.3551 27.3336 16.4751C21.3836 28.1951 15.7136 40.0651 10.3136 52.0451L9.93359 52.9051L9.85359 53.0751C8.95359 55.0751 8.57359 55.9951 8.19359 57.1251C7.54359 59.0151 7.47359 61.0551 7.97359 62.9951C8.66359 65.5851 10.4236 67.7751 12.8136 69.0151C14.8436 70.0351 17.1836 70.3151 19.4036 69.7951C21.9636 69.2351 24.4536 67.7851 27.0836 65.5251C28.2936 64.4751 29.4236 63.3651 30.4636 62.2051C27.4036 58.2251 25.1136 54.4751 23.4936 50.5451C22.0136 46.8851 21.3236 43.4351 21.6036 40.1051C21.7936 37.4851 22.7136 34.9751 24.2536 32.8451C26.0436 30.4551 28.5736 28.7151 31.4436 27.8851C34.4436 27.0251 37.6436 27.1251 40.5736 28.1751C43.7936 29.3251 46.4536 31.6551 48.0236 34.6951C49.1436 36.8751 49.6536 39.4051 49.5936 42.0451C49.4836 45.5551 48.4436 49.0851 46.6036 52.8651C45.1036 55.9251 43.2136 58.8551 40.6736 62.2151C42.0936 63.7551 43.3336 64.9551 44.6336 66.0151C47.2636 68.1751 49.7936 69.5051 52.3736 69.9151C54.5336 70.2851 56.8036 69.8951 58.6736 68.8251C60.8436 67.5851 62.4336 65.5451 63.1236 63.1551C63.6136 61.3651 63.6136 59.4951 63.1236 57.7151C62.8236 56.6451 62.4736 55.7751 61.5436 53.6751C56.9736 43.4451 52.1836 33.3051 47.1636 23.1751Z M39.8736 63.2551C40.1436 62.9051 40.4136 62.5551 40.6736 62.2151C40.3936 61.9151 40.1036 61.5951 39.8036 61.2651L39.8736 63.2551Z M31.2636 63.2351L31.3036 61.2551C31.0336 61.5751 30.7536 61.8951 30.4636 62.2051C30.7236 62.5451 30.9936 62.8951 31.2636 63.2351Z M39.8848 36.744C37.7548 34.874 34.3048 34.674 31.8848 36.264C30.9248 36.884 30.1548 37.844 29.7648 38.944C29.3348 40.054 29.2448 41.384 29.4148 42.924C29.6348 44.594 30.1548 46.324 30.9948 48.224C31.9448 50.334 33.0748 52.354 34.3748 54.264L34.4548 54.374L34.5848 54.564C34.9748 55.124 35.2848 55.574 35.5648 55.964C37.9548 52.654 39.6148 49.744 40.7448 46.734C41.5948 44.414 41.9448 42.354 41.7348 40.464C41.5648 38.984 40.9048 37.634 39.8848 36.744Z M34.3548 57.594L35.5848 58.534L36.7648 57.534C36.3648 57.054 36.0148 56.594 35.5648 55.964C35.1848 56.494 34.7748 57.034 34.3548 57.594Z " /></g></svg>