<svg width="96" height="41" viewBox="0 0 96 41" fill="none" xmlns="http://www.w3.org/2000/svg">
<path d="M16 1H95V25C95 33.2843 88.2843 40 80 40H1V16C1 7.71573 7.71573 1 16 1Z" fill="url(#paint0_linear_203_7103)"/>
<path d="M14.9433 14.728C16.0633 14.728 16.9593 15.0587 17.6313 15.72C18.3139 16.3707 18.6553 17.352 18.6553 18.664H16.7193C16.7193 17.9067 16.5593 17.3307 16.2393 16.936C15.9193 16.5413 15.4873 16.344 14.9433 16.344C14.2499 16.344 13.7326 16.6267 13.3913 17.192C13.0499 17.7573 12.8793 18.5573 12.8793 19.592V20.328C12.8793 21.3627 13.0553 22.1627 13.4073 22.728C13.7699 23.2827 14.3033 23.56 15.0073 23.56C15.5726 23.56 16.0153 23.368 16.3353 22.984C16.6553 22.5893 16.8153 22.0133 16.8153 21.256H18.6553C18.6553 22.536 18.3139 23.512 17.6313 24.184C16.9593 24.8453 16.0633 25.176 14.9433 25.176C13.6526 25.176 12.6606 24.744 11.9673 23.88C11.2739 23.0053 10.9273 21.6987 10.9273 19.96C10.9273 18.2107 11.2739 16.904 11.9673 16.04C12.6606 15.1653 13.6526 14.728 14.9433 14.728ZM22.5004 17.08C23.5457 17.08 24.319 17.4107 24.8204 18.072C25.3324 18.7333 25.5884 19.7573 25.5884 21.144C25.5884 22.52 25.3324 23.5387 24.8204 24.2C24.3084 24.8507 23.535 25.176 22.5004 25.176C21.455 25.176 20.6764 24.8507 20.1644 24.2C19.6524 23.5387 19.3964 22.52 19.3964 21.144C19.3964 19.7573 19.6524 18.7333 20.1644 18.072C20.6764 17.4107 21.455 17.08 22.5004 17.08ZM22.5004 18.584C22.0524 18.584 21.7324 18.7707 21.5404 19.144C21.3484 19.5173 21.2524 20.088 21.2524 20.856V21.4C21.2524 22.1787 21.3484 22.7547 21.5404 23.128C21.7324 23.5013 22.0524 23.688 22.5004 23.688C22.9484 23.688 23.2684 23.5013 23.4604 23.128C23.6524 22.7547 23.7484 22.1787 23.7484 21.4V20.856C23.7484 20.088 23.6524 19.5173 23.4604 19.144C23.2684 18.7707 22.9484 18.584 22.5004 18.584ZM33.8974 17.08C35.1667 17.08 35.8014 17.912 35.8014 19.576V25H34.0414V20.056C34.0414 19.5653 33.972 19.2187 33.8334 19.016C33.6947 18.8027 33.476 18.696 33.1774 18.696C32.8787 18.696 32.6227 18.8293 32.4094 19.096C32.2067 19.3627 32.1054 19.704 32.1054 20.12V25H30.3614V20.056C30.3614 19.5653 30.2867 19.2187 30.1374 19.016C29.9987 18.8027 29.78 18.696 29.4814 18.696C29.172 18.696 28.916 18.84 28.7134 19.128C28.5214 19.416 28.4254 19.7893 28.4254 20.248V25H26.6654V17.256H28.1214L28.3134 18.216H28.3934C28.596 17.8747 28.852 17.6027 29.1614 17.4C29.4707 17.1867 29.828 17.08 30.2334 17.08C31.0547 17.08 31.6094 17.4587 31.8974 18.216C32.1107 17.8853 32.388 17.6133 32.7294 17.4C33.0707 17.1867 33.46 17.08 33.8974 17.08ZM37.0381 14.36H38.7981V15.96H37.0381V14.36ZM37.0381 17.256H38.7981V25H37.0381V17.256ZM43.7795 17.08C44.4088 17.08 44.9048 17.2827 45.2675 17.688C45.6408 18.0827 45.8275 18.712 45.8275 19.576V25H44.0675V20.056C44.0675 19.576 43.9768 19.2293 43.7955 19.016C43.6248 18.8027 43.3742 18.696 43.0435 18.696C42.7022 18.696 42.4142 18.8453 42.1795 19.144C41.9555 19.432 41.8435 19.8 41.8435 20.248V25H40.0835V17.256H41.5395L41.7315 18.216H41.8115C42.0355 17.8747 42.3075 17.6027 42.6275 17.4C42.9582 17.1867 43.3422 17.08 43.7795 17.08ZM53.4645 15.96C53.4645 17.0267 53.0432 17.688 52.2005 17.944C52.4032 18.168 52.5578 18.4347 52.6645 18.744C52.7818 19.0427 52.8405 19.368 52.8405 19.72C52.8405 20.5307 52.5898 21.176 52.0885 21.656C51.5872 22.1253 50.8778 22.36 49.9605 22.36H49.2245C49.0645 22.36 48.9365 22.4027 48.8405 22.488C48.7445 22.5733 48.6965 22.6853 48.6965 22.824C48.6965 22.952 48.7392 23.064 48.8245 23.16C48.9098 23.2453 49.0218 23.288 49.1605 23.288H51.8165C52.3285 23.288 52.7552 23.4747 53.0965 23.848C53.4378 24.2107 53.6085 24.696 53.6085 25.304C53.6085 25.7627 53.4965 26.1733 53.2725 26.536C53.0485 26.8987 52.7392 27.176 52.3445 27.368C51.9605 27.5707 51.5392 27.672 51.0805 27.672H48.2645C47.7738 27.672 47.3632 27.5067 47.0325 27.176C46.7125 26.8453 46.5525 26.4187 46.5525 25.896C46.5525 25.224 46.8778 24.696 47.5285 24.312C47.3365 24.1947 47.1818 24.04 47.0645 23.848C46.9578 23.656 46.9045 23.432 46.9045 23.176C46.9045 22.856 47.0112 22.5787 47.2245 22.344C47.4378 22.0987 47.7098 21.9173 48.0405 21.8C47.7418 21.576 47.5125 21.288 47.3525 20.936C47.1925 20.5733 47.1125 20.168 47.1125 19.72C47.1125 18.9093 47.3578 18.2693 47.8485 17.8C48.3392 17.32 49.0432 17.08 49.9605 17.08C50.4512 17.08 50.8832 17.16 51.2565 17.32C51.5125 17.1173 51.6992 16.888 51.8165 16.632C51.9445 16.3653 52.0085 16.1413 52.0085 15.96H53.4645ZM49.9605 18.392C49.6085 18.392 49.3365 18.5093 49.1445 18.744C48.9632 18.968 48.8725 19.2933 48.8725 19.72C48.8725 20.136 48.9632 20.4613 49.1445 20.696C49.3365 20.92 49.6085 21.032 49.9605 21.032C50.3232 21.032 50.5952 20.92 50.7765 20.696C50.9685 20.4613 51.0645 20.136 51.0645 19.72C51.0645 19.2933 50.9685 18.968 50.7765 18.744C50.5952 18.5093 50.3232 18.392 49.9605 18.392ZM49.0485 24.92C48.8458 24.92 48.6752 24.9893 48.5365 25.128C48.3978 25.2667 48.3285 25.4267 48.3285 25.608C48.3285 25.832 48.3978 26.008 48.5365 26.136C48.6752 26.264 48.8458 26.328 49.0485 26.328H51.0165C51.2405 26.328 51.4272 26.264 51.5765 26.136C51.7365 26.008 51.8165 25.832 51.8165 25.608C51.8165 25.3947 51.7418 25.224 51.5925 25.096C51.4538 24.9787 51.2832 24.92 51.0805 24.92H49.0485ZM60.4029 14.728C61.3629 14.728 62.1469 14.9787 62.7549 15.48C63.3735 15.9707 63.6829 16.712 63.6829 17.704V17.88H61.7629V17.752C61.7629 17.3253 61.6402 16.984 61.3949 16.728C61.1495 16.472 60.8135 16.344 60.3869 16.344C59.9389 16.344 59.5922 16.4453 59.3469 16.648C59.1015 16.8507 58.9789 17.112 58.9789 17.432C58.9789 17.7093 59.0589 17.9387 59.2189 18.12C59.3895 18.2907 59.5975 18.4293 59.8429 18.536C60.0882 18.6427 60.4349 18.7653 60.8829 18.904C61.5122 19.096 62.0242 19.2933 62.4189 19.496C62.8242 19.688 63.1655 19.9867 63.4429 20.392C63.7309 20.7867 63.8749 21.3147 63.8749 21.976C63.8749 23.0747 63.5549 23.8853 62.9149 24.408C62.2855 24.92 61.4162 25.176 60.3069 25.176C59.6775 25.176 59.0962 25.0587 58.5629 24.824C58.0402 24.5787 57.6189 24.2213 57.2989 23.752C56.9895 23.2827 56.8349 22.712 56.8349 22.04V21.72H58.8029L58.7869 21.96C58.7869 22.44 58.9255 22.8293 59.2029 23.128C59.4909 23.416 59.8909 23.56 60.4029 23.56C60.9255 23.56 61.3095 23.448 61.5549 23.224C61.8002 22.9893 61.9229 22.7067 61.9229 22.376C61.9229 22.0453 61.8322 21.7733 61.6509 21.56C61.4802 21.3467 61.2615 21.1813 60.9949 21.064C60.7282 20.936 60.3655 20.7973 59.9069 20.648C59.2989 20.4453 58.8029 20.248 58.4189 20.056C58.0455 19.8533 57.7202 19.5547 57.4429 19.16C57.1762 18.7547 57.0429 18.2213 57.0429 17.56C57.0429 16.952 57.1922 16.4347 57.4909 16.008C57.8002 15.5813 58.2055 15.2613 58.7069 15.048C59.2189 14.8347 59.7842 14.728 60.4029 14.728ZM67.7998 17.08C68.8451 17.08 69.6184 17.4107 70.1198 18.072C70.6318 18.7333 70.8878 19.7573 70.8878 21.144C70.8878 22.52 70.6318 23.5387 70.1198 24.2C69.6078 24.8507 68.8344 25.176 67.7998 25.176C66.7544 25.176 65.9758 24.8507 65.4638 24.2C64.9518 23.5387 64.6958 22.52 64.6958 21.144C64.6958 19.7573 64.9518 18.7333 65.4638 18.072C65.9758 17.4107 66.7544 17.08 67.7998 17.08ZM67.7998 18.584C67.3518 18.584 67.0318 18.7707 66.8398 19.144C66.6478 19.5173 66.5518 20.088 66.5518 20.856V21.4C66.5518 22.1787 66.6478 22.7547 66.8398 23.128C67.0318 23.5013 67.3518 23.688 67.7998 23.688C68.2478 23.688 68.5678 23.5013 68.7598 23.128C68.9518 22.7547 69.0478 22.1787 69.0478 21.4V20.856C69.0478 20.088 68.9518 19.5173 68.7598 19.144C68.5678 18.7707 68.2478 18.584 67.7998 18.584ZM74.8448 17.08C75.8901 17.08 76.6634 17.4107 77.1648 18.072C77.6768 18.7333 77.9328 19.7573 77.9328 21.144C77.9328 22.52 77.6768 23.5387 77.1648 24.2C76.6528 24.8507 75.8794 25.176 74.8448 25.176C73.7994 25.176 73.0208 24.8507 72.5088 24.2C71.9968 23.5387 71.7408 22.52 71.7408 21.144C71.7408 19.7573 71.9968 18.7333 72.5088 18.072C73.0208 17.4107 73.7994 17.08 74.8448 17.08ZM74.8448 18.584C74.3968 18.584 74.0768 18.7707 73.8848 19.144C73.6928 19.5173 73.5968 20.088 73.5968 20.856V21.4C73.5968 22.1787 73.6928 22.7547 73.8848 23.128C74.0768 23.5013 74.3968 23.688 74.8448 23.688C75.2928 23.688 75.6128 23.5013 75.8048 23.128C75.9968 22.7547 76.0928 22.1787 76.0928 21.4V20.856C76.0928 20.088 75.9968 19.5173 75.8048 19.144C75.6128 18.7707 75.2928 18.584 74.8448 18.584ZM82.7057 17.08C83.3351 17.08 83.8311 17.2827 84.1937 17.688C84.5671 18.0827 84.7537 18.712 84.7537 19.576V25H82.9937V20.056C82.9937 19.576 82.9031 19.2293 82.7217 19.016C82.5511 18.8027 82.3004 18.696 81.9697 18.696C81.6284 18.696 81.3404 18.8453 81.1057 19.144C80.8817 19.432 80.7697 19.8 80.7697 20.248V25H79.0097V17.256H80.4657L80.6577 18.216H80.7377C80.9617 17.8747 81.2337 17.6027 81.5537 17.4C81.8844 17.1867 82.2684 17.08 82.7057 17.08Z" fill="#3F82A7"/>
<path d="M16 1H95V25C95 33.2843 88.2843 40 80 40H1V16C1 7.71573 7.71573 1 16 1Z" stroke="white" stroke-width="2"/>
<defs>
<linearGradient id="paint0_linear_203_7103" x1="96" y1="21" x2="4.47458" y2="21" gradientUnits="userSpaceOnUse">
<stop stop-color="#FBEBE8"/>
<stop offset="1" stop-color="#D4F4F2" stop-opacity="0.55"/>
</linearGradient>
</defs>
</svg>
