<svg xmlns="http://www.w3.org/2000/svg" xmlns:xlink="http://www.w3.org/1999/xlink" width="20" height="23" viewBox="0 0 20 23" fill="none"><path id="分组 1" fill-rule="evenodd" style="fill:#2d25ff" transform="translate(0 0)  rotate(0 10 11.5)" opacity="1" d="M0 17.5C0 18.88 1.12 20 2.5 20L15.38 20L14.75 18L20 23L20 2.5C20 1.12 18.88 0 17.5 0L2.5 0C1.12 0 0 1.12 0 2.5L0 17.5Z M11.8986 5.33L11.7286 5.5C11.7286 5.5 13.5286 6.03 14.5586 6.95C14.5586 6.95 12.6786 5.8 9.99859 5.8C7.31859 5.8 5.43859 6.95 5.43859 6.95C6.46859 6.03 8.26859 5.5 8.26859 5.5L8.09859 5.33C6.40859 5.36 4.87859 6.53 4.87859 6.53C3.15859 10.12 3.26859 13.22 3.26859 13.22C4.66859 15.03 6.74859 14.9 6.74859 14.9L7.45859 14C6.20859 13.73 5.41859 12.62 5.41859 12.62C5.41859 12.62 7.29859 13.9 9.99859 13.9C12.6986 13.9 14.5786 12.62 14.5786 12.62C14.5786 12.62 13.7886 13.73 12.5386 14L13.2486 14.9C13.2486 14.9 15.3286 15.03 16.7286 13.22C16.7286 13.22 16.8386 10.12 15.1186 6.53C15.1186 6.53 13.5886 5.36 11.8986 5.33Z M6.77 10.86C6.77 11.55 7.29 12.13 7.93 12.13C8.58 12.13 9.1 11.55 9.1 10.86C9.11 10.16 8.58 9.59 7.93 9.59C7.28 9.59 6.77 10.16 6.77 10.86Z M10.94 10.86C10.94 11.55 11.46 12.13 12.1 12.13C12.75 12.13 13.27 11.55 13.27 10.86C13.27 10.16 12.75 9.59 12.1 9.59C11.45 9.59 10.94 10.16 10.94 10.86Z " /></svg>