<svg xmlns="http://www.w3.org/2000/svg" xmlns:xlink="http://www.w3.org/1999/xlink" width="77" height="77" viewBox="0 0 77 77" fill="none"><g opacity="1" transform="translate(0 0)  rotate(0 38.5 38.5)"><path id="路径" fill-rule="evenodd" style="fill:#2D25FF" transform="translate(26.586621525 31.508479125)  rotate(0 11.8133782875 3.9380996250000013)" opacity="1" d="M0,7.88L23.63,7.88L23.63,0L0,0L0,7.88Z " /><path id="路径" fill-rule="evenodd" style="fill:#2D25FF" transform="translate(28.555364475 45.291520875)  rotate(0 9.8446353375 4.9224711)" opacity="1" d="M5.91,9.84L13.78,9.84L19.69,0L0,0L5.91,9.84Z " /><path id="形状" fill-rule="evenodd" style="fill:#2D25FF" transform="translate(0.0006134999999994759 0)  rotate(0 38.399386312500006 38.4000000375)" opacity="1" d="M72.57 4.22C69.76 1.41 66.37 0 62.4 0L14.4 0C10.44 0 7.04 1.41 4.22 4.22C1.41 7.04 0 10.44 0 14.4L0 62.4C0 66.36 1.41 69.76 4.22 72.58C7.04 75.39 10.44 76.8 14.4 76.8L62.4 76.8C66.37 76.8 69.76 75.39 72.57 72.58C75.39 69.76 76.8 66.36 76.8 62.4L76.8 14.4C76.8 10.44 75.39 7.04 72.57 4.22Z M20.6823 45.2916L24.8623 45.2916L23.6323 46.9316L28.5523 55.1316L14.7723 55.1316L14.7723 61.0416L62.0223 61.0416L62.0223 55.1316L48.2423 55.1316L53.1623 46.9916L51.4423 45.2916L56.1223 45.2916L56.1223 25.6016L20.6823 25.6016L20.6823 45.2916Z M62.0223 15.7573L14.7723 15.7573L14.7723 21.6673L62.0223 21.6673L62.0223 15.7573Z " /></g></svg>