<svg xmlns="http://www.w3.org/2000/svg" xmlns:xlink="http://www.w3.org/1999/xlink" width="70" height="70" viewBox="0 0 70 70" fill="none"><g opacity="1" transform="translate(0 0)  rotate(0 35 35)"><path id="路径" fill-rule="evenodd" style="fill:#2D25FF" transform="translate(0.03603892640890743 0.06114801796875002)  rotate(0 34.77344091338531 34.76942599101563)" opacity="1" d="M67.06,0L65.82,0.35L1.24,37.6C0.36,38.09 -0.05,38.87 0.01,39.89C0.07,40.97 0.6,41.67 1.55,42.04L16.26,48.07C16.64,48.22 17.39,47.88 17.39,47.88L58.36,12.41L25.81,52.31C25.18,53.1 24.83,54.06 24.83,55.07L24.83,67.05C24.83,67.58 25.29,68.47 25.29,68.47C25.59,68.91 25.98,69.2 26.47,69.39L27.33,69.54C28.12,69.54 28.76,69.25 29.23,68.65L37.61,58.43C38.22,57.7 39.22,57.44 40.11,57.8L56.2,64.37L57.13,64.57C57.56,64.57 57.97,64.46 58.34,64.26C59.02,63.84 59.45,63.26 59.57,62.52L69.51,2.91C69.67,1.88 69.33,1.04 68.47,0.44C68.06,0.15 67.59,0 67.06,0Z " /></g></svg>