<svg xmlns="http://www.w3.org/2000/svg" xmlns:xlink="http://www.w3.org/1999/xlink" width="200" height="200" viewBox="0 0 200 200" fill="none"><defs><rect id="path_0" x="0" y="0" width="200" height="200" /></defs><g opacity="1" transform="translate(0 0)  rotate(0 100 100)"><mask id="bg-mask-0" fill="white"><use xlink:href="#path_0"></use></mask><g mask="url(#bg-mask-0)" ><g opacity="1" transform="translate(24.999985766966393 15.11666660156129)  rotate(0 75.01345772151782 84.8833333984381)"><path id="路径 1" fill-rule="evenodd" style="fill:#00BAAD" transform="translate(0 0)  rotate(0 44.96667381573556 84.8833333984381)" opacity="1" d="M0,7.67L0,162.1C-0.01,165.45 2,168.47 5.08,169.77L89.93,84.88L5.08,0C2,1.31 0,4.32 0,7.67Z " /><path id="路径 2" fill-rule="evenodd" style="fill:#FF5733" transform="translate(23.866680834596117 90.7750000000012)  rotate(0 45.5708333984375 35.979166699218744)" opacity="1" d="M0,71.96L91.14,19.18L71.96,0L0,71.96Z " /><path id="路径 3" fill-rule="evenodd" style="fill:#F2CF05" transform="translate(101.71668083459613 64.1250000000012)  rotate(0 24.155117304219765 20.7583333984375)" opacity="1" d="M0,20.76L20.76,41.52L44.16,27.97C46.73,26.48 48.31,23.73 48.31,20.76C48.31,17.79 46.73,15.04 44.16,13.55L20.77,0L0,20.76Z " /><path id="路径 4" fill-rule="evenodd" style="fill:#2FCC66" transform="translate(23.866680834596114 7.033333398438709)  rotate(0 45.574999999999996 35.979166699218744)" opacity="1" d="M71.96,71.96L91.15,52.77L0,0L71.96,71.96Z " /></g></g></g></svg>