<svg xmlns="http://www.w3.org/2000/svg" xmlns:xlink="http://www.w3.org/1999/xlink" width="77" height="77" viewBox="0 0 77 77" fill="none"><g opacity="1" transform="translate(0 0)  rotate(0 38.5 38.5)"><path id="形状" fill-rule="evenodd" style="fill:#2D25FF" transform="translate(0.008927305333781985 0.1628647456753043)  rotate(0 38.04770642201836 38.04770642201836)" opacity="1" d="M0 38.05C0 59.06 17.04 76.1 38.05 76.1C59.06 76.1 76.1 59.06 76.1 38.05C76.1 17.04 59.06 0 38.05 0C17.04 0 0 17.04 0 38.05Z M52.385 22.6519C48.775 19.2919 44.065 17.2319 38.465 17.2319C30.335 17.2319 23.305 21.8919 19.885 28.7019C18.475 31.5119 17.665 34.6819 17.665 38.0519C17.665 41.4119 18.475 44.5819 19.885 47.4019C23.305 54.1919 30.335 58.8519 38.465 58.8519C44.075 58.8519 48.785 56.9819 52.225 53.8119C56.165 50.1819 58.435 44.8619 58.435 38.5119C58.435 37.0419 58.305 35.6319 58.055 34.2619L38.465 34.2619L38.465 42.3119L49.655 42.3119C49.175 44.9219 47.715 47.1219 45.505 48.5919C43.645 49.8419 41.265 50.5819 38.465 50.5819C33.055 50.5819 28.465 46.9219 26.825 42.0019C26.415 40.7619 26.175 39.4219 26.175 38.0519C26.175 36.6719 26.415 35.3419 26.825 34.0919C28.465 29.1719 33.055 25.5119 38.475 25.5119C41.525 25.5119 44.265 26.5519 46.425 28.6219L52.385 22.6519Z " /></g></svg>