<svg xmlns="http://www.w3.org/2000/svg" xmlns:xlink="http://www.w3.org/1999/xlink" width="147" height="45" viewBox="0 0 147 45" fill="none"><defs><path id="path_0"
        transform="translate(0 0.1924131176469998) rotate(0 73.32380629411765 21.681596382352947)"
        d="M146.65,43.36L146.65,0L0,0L0,43.36L146.65,43.36Z" /></defs><g opacity="1" transform="translate(0 -2.2382096176443156e-13)  rotate(0 73.5 22.5)"><path id="Fill 1" fill-rule="evenodd" style="fill:#2D25FF" transform="translate(55.28124926470602 10.16924339117655)  rotate(0 8.420175132352945 11.461488088235296)" opacity="1" d="M4.58,13.43L13.77,13.43L13.77,9.17L4.58,9.17L4.58,4.28L16.84,4.28L16.84,0L0,0.01L0,22.92L16.81,22.92L16.81,18.65L4.58,18.65L4.58,13.43Z " /><g opacity="1" transform="translate(0 0.1373757617648188)  rotate(0 73.5 22)"><path id="Fill 2" fill-rule="evenodd" style="fill:#2D25FF" transform="translate(75.0393148235294 17.67317487352949)  rotate(0 6.991034955882355 10.89618075)" opacity="1" d="M0,9.48C0,11 0.51,12.35 1.53,13.52C2.55,14.69 4.02,15.28 5.96,15.28C7.38,15.28 8.62,14.82 9.7,13.89L9.7,14.67C9.7,15.89 9.42,16.83 8.84,17.5C8.27,18.16 7.31,18.49 5.99,18.49C4.9,18.39 3.74,17.88 2.52,16.96L0.54,19.26C2.27,20.89 4.2,21.73 6.34,21.79L7.26,21.7C9.09,21.62 10.67,20.86 12,19.42C13.32,17.99 13.98,16.2 13.98,14.06L13.98,0L9.7,0L9.7,9.99C9.03,11.04 8.25,11.6 7.35,11.66C6.32,11.63 5.55,11.33 5.04,10.77C4.53,10.21 4.28,9.43 4.28,8.41L4.28,0L0,0L0,9.48Z " /><path id="Fill 4" fill-rule="evenodd" style="fill:#2D25FF" transform="translate(91.64611278529392 17.67303979411776)  rotate(0 7.488127191176475 7.64076692647059)" opacity="1" d="M7.64595 3.51477C6.82595 3.51477 6.11595 3.74477 5.50595 4.20477C4.89595 4.66477 4.58595 5.29477 4.58595 6.11477L10.6959 6.11477C10.6959 5.29477 10.3959 4.66477 9.77595 4.20477C9.16595 3.74477 8.45595 3.51477 7.64595 3.51477Z M7.64 11.77C6.83 11.77 6.11 11.54 5.5 11.08C4.89 10.62 4.53 9.98 4.43 9.17L14.98 9.17L14.98 7.64C14.98 5.4 14.31 3.57 12.99 2.14C11.67 0.71 9.88 0 7.64 0C5.4 0 3.57 0.71 2.14 2.14C0.71 3.57 0 5.4 0 7.64C0 9.88 0.71 11.72 2.14 13.14C3.57 14.57 5.4 15.28 7.64 15.28C10.7 15.28 12.79 14.52 13.91 12.99L11.46 10.54C10.34 11.36 9.07 11.77 7.64 11.77Z " /><path id="Fill 6" fill-rule="evenodd" style="fill:#2D25FF" transform="translate(108.5010516264708 17.58199627058819)  rotate(0 5.898242514705885 7.76301379411765)" opacity="1" d="M7.86,11.44C7.52,11.82 6.77,12.01 5.59,12.01C4.13,11.88 3.06,11.4 2.37,10.57L0,13.25C0.69,13.94 1.52,14.49 2.48,14.91C3.45,15.32 4.65,15.53 6.1,15.53C7.62,15.53 8.95,15.13 10.09,14.34C11.23,13.54 11.8,12.42 11.8,10.97C11.8,9.18 11.31,7.92 10.35,7.2C9.38,6.47 8.13,6.04 6.62,5.9C5.59,5.69 4.9,5.44 4.55,5.13C4.21,4.82 4.21,4.47 4.55,4.09C4.9,3.7 5.59,3.51 6.62,3.51C7.65,3.51 8.52,3.93 9.22,4.75L11.6,2.06C10.91,1.38 10.16,0.87 9.37,0.52C8.57,0.17 7.46,0 6.02,0C4.78,0 3.57,0.41 2.39,1.25C1.21,2.07 0.63,3.28 0.63,4.86C0.63,6.58 1.14,7.75 2.18,8.37C3.21,8.99 4.35,9.38 5.59,9.52C6.97,9.65 7.78,9.91 8.02,10.29C8.26,10.67 8.2,11.06 7.86,11.44Z " /><path id="Fill 8" fill-rule="evenodd" style="fill:#2D25FF" transform="translate(123.6611490882353 10.03186762941173)  rotate(0 8.06153929411766 11.46148808823529)" opacity="1" d="M16.12,0L0,0L0,22.92L4.58,22.92L4.58,13.43L13.1,13.43L13.1,9.17L4.58,9.17L4.58,4.28L16.12,4.28L16.12,0Z " /><mask id="mask-0" fill="white"><use xlink:href="#path_0"></use></mask><g mask="url(#mask-0)"></g><g mask="url(#mask-0)"><path id="Fill 10" fill-rule="evenodd" style="fill:#2D25FF" transform="translate(142.0630173529411 11.85111714705878)  rotate(0 2.292297617647063 10.55172825)" opacity="1" d="M4.43264 21.1057L4.43264 5.80571L0.15264 5.80571L0.15264 21.1057L4.43264 21.1057Z M0 2.15C0 2.77 0.2 3.27 0.61 3.68C1.02 4.09 1.58 4.29 2.29 4.29C3.01 4.29 3.57 4.09 3.97 3.68C4.38 3.27 4.58 2.77 4.58 2.15C4.58 1.54 4.38 1.03 3.97 0.62C3.57 0.21 2.99 0 2.26 0C1.57 0 1.02 0.21 0.61 0.62C0.2 1.03 0 1.54 0 2.15Z " /></g><g mask="url(#mask-0)"><path id="Fill 12" fill-rule="evenodd" style="fill:#2D25FF" transform="translate(0.0004052382354039765 0.1928183558824038)  rotate(0 21.68092098529412 21.681596382352947)" opacity="1" d="M13.4,0C6,0 0,6 0,13.4L0,29.96C0,37.37 6,43.36 13.4,43.36L29.96,43.36C37.36,43.36 43.36,37.37 43.36,29.96L43.36,13.4C43.36,6 37.36,0 29.96,0L13.4,0Z " /></g><g mask="url(#mask-0)"><path id="Fill 13" fill-rule="evenodd" style="fill:#FFFFFF" transform="translate(6.843528238235329 14.10030858543414)  rotate(0 14.8371225882353 7.77403068963586)" opacity="1" d="M27.7064 2.10631L25.2864 4.41631C24.9364 4.74631 24.4764 4.93631 23.9964 4.93631L17.9264 4.93631L17.9264 10.5963L27.7064 10.5963L27.7064 2.10631Z M11.7508 4.94838L1.97081 4.94838L1.97081 6.90838L1.97081 13.4384L4.39081 11.1384C4.74081 10.7984 5.20081 10.6184 5.68081 10.6184L11.7508 10.6184L11.7508 4.94838Z M29.67 1.87C29.67 1.12 29.23 0.45 28.54 0.15C27.85 -0.14 27.06 -2.62444e-16 26.52 0.52L23.95 2.96L17.83 2.96C16.8 2.96 15.96 3.8 15.96 4.83L15.96 6.25L13.72 6.25L13.72 4.85C13.72 3.82 12.88 2.98 11.85 2.98L1.87 2.98C0.84 2.98 0 3.82 0 4.85L0 13.68C0 14.43 0.45 15.1 1.13 15.4C1.37 15.5 1.62 15.55 1.87 15.55C2.34 15.55 2.8 15.37 3.16 15.03L5.72 12.59L11.85 12.59C12.88 12.59 13.72 11.75 13.72 10.72L13.72 8.22L15.96 8.22L15.96 10.7C15.96 11.73 16.8 12.57 17.83 12.57L27.8 12.57C28.84 12.57 29.67 11.73 29.67 10.7L29.67 1.87Z " /></g></g></g></svg>