<svg xmlns="http://www.w3.org/2000/svg" xmlns:xlink="http://www.w3.org/1999/xlink" width="38.00000000000023" height="23" viewBox="0 0 38.00000000000023 23" fill="none"><g opacity="1" transform="translate(2.5579538487363607e-13 0)  rotate(0 19 11.5)"><path id="椭圆形" fill-rule="evenodd" style="fill:#2d25ff" transform="translate(-1.999224634080126e-13 -1.358696353258338e-14)  rotate(0 11.00878048780488 11.00878048780488)" opacity="1" d="M22.02,11.01C22.02,4.93 17.09,0 11.01,0C4.93,0 0,4.93 0,11.01C0,17.09 4.93,22.02 11.01,22.02C17.09,22.02 22.02,17.09 22.02,11.01Z " /><path id="椭圆形备份 3" fill-rule="evenodd" style="fill:#2d25ff" transform="translate(22.86164924506409 0.9014634146341337)  rotate(0 5.162926829268295 10.107317073170735)" opacity="1" d="M10.33,10.11C10.33,4.53 8.01,0 5.16,0C2.31,0 0,4.53 0,10.11C0,15.69 2.31,20.21 5.16,20.21C8.01,20.21 10.33,15.69 10.33,10.11Z " /><path id="椭圆形备份 4" fill-rule="evenodd" style="fill:#2d25ff" transform="translate(34.0315911730554 3.278048780487792)  rotate(0 1.7756097560975606 7.730731707317075)" opacity="1" d="M3.55,7.73C3.55,3.46 2.76,0 1.78,0C0.8,0 0,3.46 0,7.73C0,12 0.8,15.46 1.78,15.46C2.76,15.46 3.55,12 3.55,7.73Z " /></g></svg>