<svg xmlns="http://www.w3.org/2000/svg" xmlns:xlink="http://www.w3.org/1999/xlink" width="79" height="72" viewBox="0 0 79 72" fill="none"><g opacity="1" transform="translate(0 0)  rotate(0 39.5 36)"><path id="形状" fill-rule="evenodd" style="fill:#2D25FF" transform="translate(0 0.0680891728940207)  rotate(0 39.13043478260869 35.79545455587636)" opacity="1" d="M0 22.41C0 23.12 0.35 23.83 0.35 23.83L37.35 70.79C38.07 71.86 39.84 71.86 40.91 70.79L77.91 23.83L78.26 22.77L66.17 0.71C65.81 0.36 65.46 0 65.1 0L13.16 0C12.8 0 12.45 0.36 12.09 0.71L0 22.41Z M32.0141 4.98024L26.3241 20.6302L51.5841 20.6302L45.8841 4.98024L32.0141 4.98024Z M6.75889 20.6302L20.9889 20.6302L26.6789 4.98024L15.2989 4.98024L6.75889 20.6302Z M32.0161 56.9126L21.3461 25.6126L7.82609 25.6126L32.0161 56.9126Z M51.5798 25.6126L26.6798 25.6126L39.1298 61.1826L51.5798 25.6126Z M70.4393 25.2569L56.9193 25.2569L45.8893 56.9169L70.4393 25.2569Z M71.1453 20.6302L62.9653 4.98024L51.2253 4.98024L56.9153 20.6302L71.1453 20.6302Z " /><path  id="形状" style="stroke:#2D25FF; stroke-width:1.6; stroke-opacity:1; stroke-dasharray:0 0" transform="translate(0 0.0680891728940207)  rotate(0 39.13043478260869 35.79545455587636)" d="M0 22.41C0 23.12 0.35 23.83 0.35 23.83L37.35 70.79C38.07 71.86 39.84 71.86 40.91 70.79L77.91 23.83L78.26 22.77L66.17 0.71C65.81 0.36 65.46 0 65.1 0L13.16 0C12.8 0 12.45 0.36 12.09 0.71L0 22.41Z M32.0141 4.98024L26.3241 20.6302L51.5841 20.6302L45.8841 4.98024L32.0141 4.98024Z M6.75889 20.6302L20.9889 20.6302L26.6789 4.98024L15.2989 4.98024L6.75889 20.6302Z M32.0161 56.9126L21.3461 25.6126L7.82609 25.6126L32.0161 56.9126Z M51.5798 25.6126L26.6798 25.6126L39.1298 61.1826L51.5798 25.6126Z M70.4393 25.2569L56.9193 25.2569L45.8893 56.9169L70.4393 25.2569Z M71.1453 20.6302L62.9653 4.98024L51.2253 4.98024L56.9153 20.6302L71.1453 20.6302Z " /></g></svg>