<svg xmlns="http://www.w3.org/2000/svg" xmlns:xlink="http://www.w3.org/1999/xlink" width="34" height="28" viewBox="0 0 34 28" fill="none"><g opacity="1" transform="translate(-2.842170943040401e-14 0)  rotate(0 17 14)"><path id="路径" fill-rule="evenodd" style="fill:#2d25ff" transform="translate(0.04652255639084615 0.5436090225563931)  rotate(0 16.74047337278107 13.6)" opacity="1" d="M29.53,4.29C30.95,3.44 32.04,2.11 32.55,0.51C31.23,1.29 29.74,1.87 28.19,2.17C26.94,0.83 25.16,0 23.18,0C19.38,0 16.32,3.08 16.32,6.87C16.32,7.4 16.39,7.93 16.49,8.44C10.79,8.14 5.72,5.42 2.34,1.26C1.75,2.28 1.41,3.44 1.41,4.72C1.41,7.1 2.62,9.2 4.47,10.44C3.34,10.39 2.28,10.07 1.36,9.56C1.36,12.99 3.72,15.75 6.86,16.39C6.29,16.53 5.68,16.62 5.06,16.62C4.61,16.62 4.19,16.57 3.76,16.51C4.63,19.23 7.16,21.21 10.17,21.27C7.82,23.12 4.86,24.21 1.66,24.21C1.08,24.21 0.55,24.19 0,24.12C3.04,26.07 6.65,27.2 10.54,27.2C23.16,27.2 30.06,16.75 30.06,7.67C30.06,7.38 30.06,7.08 30.04,6.78C31.37,5.8 32.55,4.59 33.48,3.23C32.25,3.76 30.91,4.15 29.53,4.29Z " /></g></svg>